<?xml version="1.0" encoding="UTF-8" standalone="no"?>
<!DOCTYPE svg PUBLIC "-//W3C//DTD SVG 1.1//EN" "http://www.w3.org/Graphics/SVG/1.1/DTD/svg11.dtd"><svg width="100%"
    height="100%" viewBox="0 0 151 151" version="1.1" xmlns="http://www.w3.org/2000/svg"
    xmlns:xlink="http://www.w3.org/1999/xlink" xml:space="preserve" xmlns:serif="http://www.serif.com/"
    style="fill-rule:evenodd;clip-rule:evenodd;stroke-linejoin:round;stroke-miterlimit:2;">
    <rect id="phellow-community-favicon_mint" serif:id="phellow community favicon_mint" x="0.137" y="0.19" width="150"
        height="150" style="fill:none;" />
    <g id="Icon">
        <path
            d="M129.826,94.394c-0.576,-0.878 -1.753,-1.123 -2.633,-0.547l-50.929,33.395c-0.685,0.45 -1.57,0.45 -2.255,0l-50.93,-33.395c-0.877,-0.576 -2.055,-0.331 -2.631,0.547c-0.576,0.877 -0.33,2.056 0.547,2.63l50.931,33.397c0.975,0.639 2.093,0.959 3.211,0.959c1.117,-0 2.235,-0.32 3.211,-0.959l50.93,-33.397c0.878,-0.574 1.122,-1.753 0.548,-2.63Z"
            style="fill:#15ce9e;fill-rule:nonzero;" />
        <path
            d="M22.583,85.318l49.346,32.357c0.974,0.639 2.09,0.957 3.208,0.957c1.116,0 2.233,-0.318 3.208,-0.957l49.344,-32.357c1.43,-0.937 2.283,-2.516 2.283,-4.225c0,-1.708 -0.852,-3.288 -2.281,-4.225l-19.617,-12.867c0.314,-0.358 0.614,-0.711 0.897,-1.056c10.555,-12.863 10.73,-28.921 0.415,-38.184c-4.626,-4.154 -9.774,-6.079 -15.302,-5.717c-8.758,0.571 -15.976,6.737 -18.943,9.673c-2.968,-2.935 -10.191,-9.103 -18.952,-9.673c-5.529,-0.359 -10.676,1.564 -15.302,5.717c-10.314,9.263 -10.14,25.321 0.415,38.184c9.407,11.466 31.881,25.394 32.833,25.981c0.893,0.55 2.063,0.273 2.614,-0.62c0.551,-0.892 0.274,-2.063 -0.619,-2.615c-0.228,-0.14 -22.886,-14.182 -31.89,-25.156c-9.219,-11.235 -9.561,-25.091 -0.814,-32.947c3.831,-3.439 8.036,-5.038 12.499,-4.753c9.685,0.619 17.696,9.788 17.774,9.879c0.723,0.841 2.162,0.84 2.884,-0.001c0.08,-0.092 8.038,-9.245 17.749,-9.877c4.468,-0.289 8.679,1.308 12.515,4.752c8.748,7.856 8.405,21.712 -0.813,32.947c-0.656,0.798 -1.41,1.644 -2.243,2.515c-0.39,0.408 -0.58,0.968 -0.516,1.529c0.064,0.561 0.374,1.064 0.846,1.374l21.485,14.092c0.511,0.336 0.567,0.844 0.566,1.048c0,0.203 -0.055,0.712 -0.566,1.047l-49.345,32.356c-0.683,0.448 -1.566,0.449 -2.249,0l-49.345,-32.355c-0.51,-0.336 -0.566,-0.845 -0.566,-1.048c0,-0.204 0.056,-0.712 0.566,-1.048l10.89,-7.143c0.878,-0.576 1.122,-1.753 0.547,-2.631c-0.576,-0.877 -1.753,-1.122 -2.631,-0.546l-10.89,7.143c-1.429,0.937 -2.282,2.517 -2.282,4.225c0,1.708 0.854,3.288 2.282,4.225Z"
            style="fill:#15ce9e;fill-rule:nonzero;" />
    </g>
</svg>